<svg id="Lag_1" data-name="Lag 1" xmlns="http://www.w3.org/2000/svg" viewBox="0 0 72.53 118"><defs><style>.cls-1{fill:none;stroke:#000;stroke-miterlimit:10;}</style></defs><title>pil</title><circle class="cls-1" cx="36.13" cy="3" r="2.5"/><circle class="cls-1" cx="36.13" cy="75" r="2.5"/><circle class="cls-1" cx="36.13" cy="67" r="2.5"/><circle class="cls-1" cx="36.13" cy="59" r="2.5"/><circle class="cls-1" cx="36.13" cy="51" r="2.5"/><circle class="cls-1" cx="36.13" cy="43" r="2.5"/><circle class="cls-1" cx="36.13" cy="27" r="2.5"/><circle class="cls-1" cx="36.13" cy="35" r="2.5"/><circle class="cls-1" cx="36.13" cy="19" r="2.5"/><circle class="cls-1" cx="36.13" cy="11" r="2.5"/><circle class="cls-1" cx="36.13" cy="115" r="2.5"/><circle class="cls-1" cx="36.13" cy="107" r="2.5"/><circle class="cls-1" cx="36.13" cy="99" r="2.5"/><circle class="cls-1" cx="36.13" cy="91" r="2.5"/><circle class="cls-1" cx="36.13" cy="83" r="2.5"/><circle class="cls-1" cx="69.53" cy="80.56" r="2.5"/><circle class="cls-1" cx="42.96" cy="110.46" r="2.5"/><circle class="cls-1" cx="48.28" cy="104.48" r="2.5"/><circle class="cls-1" cx="53.59" cy="98.5" r="2.5"/><circle class="cls-1" cx="58.9" cy="92.52" r="2.5"/><circle class="cls-1" cx="64.22" cy="86.54" r="2.5"/><circle class="cls-1" cx="3" cy="80.92" r="2.5"/><circle class="cls-1" cx="29.57" cy="110.83" r="2.5"/><circle class="cls-1" cx="24.25" cy="104.84" r="2.5"/><circle class="cls-1" cx="18.94" cy="98.86" r="2.5"/><circle class="cls-1" cx="13.63" cy="92.88" r="2.5"/><circle class="cls-1" cx="8.31" cy="86.9" r="2.5"/></svg>
