<?xml version="1.0" encoding="utf-8"?>
<!-- Generator: Adobe Illustrator 24.0.1, SVG Export Plug-In . SVG Version: 6.00 Build 0)  -->
<svg version="1.1" id="Lag_1" xmlns="http://www.w3.org/2000/svg" xmlns:xlink="http://www.w3.org/1999/xlink" x="0px" y="0px"
	 viewBox="0 0 95 95" style="enable-background:new 0 0 95 95;" xml:space="preserve">
<style type="text/css">
	.st0{fill:#FFFFFF;}
	.st1{fill:#7D7096;}
</style>
<circle class="st0" cx="47.58" cy="47.39" r="45.45"/>
<path class="st1" d="M51.1,66.62c5.22,0.84,9.66-1.37,13.1-7.89c2.96-5.73,3.51-12.14,1.72-19.23c-2.47-7.16-7.57-11.09-14.88-12.22
	c-9.06-0.6-14.85,1.36-19.22,7.02c-4.73,5.44-6.35,12.08-3.47,20.11c1.2,1.89,2.63,2.62,1.76,6.12l-0.87,3.5
	c-0.47,0.97-1.36,1.18-3.5-0.87c-5.1-4.11-7.5-10.75-7.02-20.1c1.18-6.53,3.78-12.25,8.72-16.62c4.99-4.12,10.79-6.52,17.47-7.02
	c8.16-0.91,15.44,0.87,21.86,5.21c7.41,5.76,10.88,13.35,10.52,22.71c-0.13,6.98-2.86,13.67-7.84,20.12
	c-5.24,6.13-13.1,8.76-20.97,6.15c-2.11-1.37-4.04-2.79-5.25-4.36c-0.87,5.25-3.36,11.35-6.09,18.37l-3.49,5.25l-2.62-1.74
	l-0.01-6.99c-0.08-2.59,0.28-5.22,0.86-7.87l5.22-20.99c-1.7-4.03-2.48-8.41-0.02-13.99c1.72-3,4.08-4.38,6.99-4.38
	c5.05,0.29,6.49,4.39,4.39,12.23c-3.1,7.67-3.92,12.27-2.6,13.99C47.05,64.75,48.5,66.16,51.1,66.62z"/>
</svg>
