<?xml version="1.0" encoding="utf-8"?>
<!-- Generator: Adobe Illustrator 24.0.1, SVG Export Plug-In . SVG Version: 6.00 Build 0)  -->
<svg version="1.1" id="Lag_1" xmlns="http://www.w3.org/2000/svg" xmlns:xlink="http://www.w3.org/1999/xlink" x="0px" y="0px"
	 viewBox="0 0 95 95" style="enable-background:new 0 0 95 95;" xml:space="preserve">
<style type="text/css">
	.st0{fill:#FFFFFF;}
	.st1{fill:#7D7096;}
</style>
<path class="st0" d="M2.5,23.16v47.21C2.52,88.8,14.3,92.5,32.01,92.5h32.46c19.19-0.21,28.05-9.86,28.03-26.56V23.46
	C92.5,8.66,83.87,2.5,65.38,2.5H28.39C12.36,2.5,2.5,8.66,2.5,23.16z"/>
<path class="st1" d="M12.36,27.54v37.51c0.01,14.65,9.38,17.58,23.44,17.58H61.6c15.25-0.17,22.29-7.84,22.27-21.1V27.78
	c0-11.75-6.86-16.65-21.55-16.65H32.93C20.2,11.13,12.36,16.03,12.36,27.54z"/>
<circle class="st0" cx="48.12" cy="48.12" r="24.66"/>
<circle class="st1" cx="48.12" cy="48.12" r="14.79"/>
<circle class="st0" cx="70.92" cy="22.84" r="5.55"/>
</svg>
